<svg xmlns="http://www.w3.org/2000/svg" viewBox="0 0 512 512" role="img" aria-label="StrainVault icon">
  <defs>
    <radialGradient id="g" cx="35%" cy="25%" r="80%">
      <stop offset="0" stop-color="#f7f2e8" stop-opacity=".9"/>
      <stop offset=".22" stop-color="#52f28b"/>
      <stop offset=".62" stop-color="#9d7cff"/>
      <stop offset="1" stop-color="#11151f"/>
    </radialGradient>
    <filter id="shadow" x="-20%" y="-20%" width="140%" height="140%">
      <feDropShadow dx="0" dy="22" stdDeviation="26" flood-color="#000" flood-opacity=".45"/>
    </filter>
  </defs>
  <rect width="512" height="512" rx="128" fill="#0b0f15"/>
  <circle cx="256" cy="256" r="178" fill="url(#g)" filter="url(#shadow)"/>
  <path d="M254 113c23 52 37 92 38 122 26-37 52-63 79-80-4 48-22 88-55 119 43-2 79 5 108 22-43 30-90 41-139 32 9 35 6 68-9 99-21-29-33-61-36-96-33 21-70 29-111 23 24-27 53-47 88-60-43-22-75-55-96-98 47 8 85 29 114 61-5-46 2-94 19-144z" fill="#f7f2e8" opacity=".92"/>
  <circle cx="258" cy="274" r="28" fill="#11151f" opacity=".75"/>
</svg>
